<?xml version="1.0" encoding="UTF-8" standalone="no"?>
<!-- Created with Inkscape (http://www.inkscape.org/) -->

<svg
   xmlns:dc="http://purl.org/dc/elements/1.1/"
   xmlns:cc="http://creativecommons.org/ns#"
   xmlns:rdf="http://www.w3.org/1999/02/22-rdf-syntax-ns#"
   xmlns:svg="http://www.w3.org/2000/svg"
   xmlns="http://www.w3.org/2000/svg"
   version="1.1"
   width="377.25"
   height="253.90625"
   id="svg2">
  <defs
     id="defs4" />
  <metadata
     id="metadata7">
    <rdf:RDF>
      <cc:Work
         rdf:about="">
        <dc:format>image/svg+xml</dc:format>
        <dc:type
           rdf:resource="http://purl.org/dc/dcmitype/StillImage" />
        <dc:title></dc:title>
      </cc:Work>
    </rdf:RDF>
  </metadata>
  <g
     transform="translate(-58.0625,-435.40625)"
     id="layer1">
    <path
       d="m 58.5625,436.65625 0,251.40625 125,-125.6875 -125,-125.71875 z m 250.65625,0.125 c -69.35542,0 -125.5625,56.20708 -125.5625,125.5625 0,69.35542 56.20708,125.59375 125.5625,125.59375 69.35542,0 125.59375,-56.23833 125.59375,-125.59375 0,-69.35542 -56.23833,-125.5625 -125.59375,-125.5625 z"
       id="path2998"
       style="fill:#008000;fill-opacity:1;fill-rule:evenodd;stroke:#000000;stroke-width:1.02318478px;stroke-linecap:butt;stroke-linejoin:miter;stroke-opacity:1" />
    <g
       id="g3009">
      <path
         d="m 396.42856,501.29074 a 24.642857,24.642857 0 1 1 -49.28571,0 24.642857,24.642857 0 1 1 49.28571,0 z"
         transform="matrix(1.0144928,0,0,1.0144928,-6.2810561,-8.8722263)"
         id="path3004"
         style="fill:#f9f9f9" />
      <path
         d="m 391.24999,489.86218 a 12.321428,12.321428 0 1 1 -24.64286,0 12.321428,12.321428 0 1 1 24.64286,0 z"
         transform="matrix(1.0072464,0,0,1.0072464,1.271998,5.825274)"
         id="path3006"
         style="fill:#000000" />
    </g>
  </g>
</svg>
